<svg width="12" height="21" viewBox="0 0 12 21" fill="none" xmlns="http://www.w3.org/2000/svg">
<path d="M0.319111 10.7826L9.22114 19.6845C9.42704 19.8905 9.70189 20.004 9.99495 20.004C10.288 20.004 10.5629 19.8905 10.7688 19.6845L11.4243 19.029C11.8509 18.602 11.8509 17.9079 11.4243 17.4814L3.94908 10.0062L11.4326 2.52263C11.6385 2.31657 11.7522 2.04189 11.7522 1.74898C11.7522 1.45576 11.6385 1.18107 11.4326 0.974852L10.7771 0.319603C10.571 0.113548 10.2963 3.03903e-05 10.0032 3.03647e-05C9.71018 3.03391e-05 9.43533 0.113548 9.22944 0.319603L0.319111 9.2296C0.11273 9.43631 -0.000624711 9.7123 2.56696e-05 10.0057C-0.000624762 10.3002 0.11273 10.576 0.319111 10.7826Z" fill="#01579B"/>
</svg>
