<svg width="32" height="37" viewBox="0 0 32 37" fill="none" xmlns="http://www.w3.org/2000/svg">
<path d="M22.6879 0C20.7685 0.132762 18.525 1.36137 17.2177 2.96127C16.0251 4.41265 15.044 6.56834 15.4265 8.66328C17.5237 8.72853 19.6906 7.47067 20.9463 5.84377C22.1209 4.32939 23.0097 2.1872 22.6879 0Z" fill="white"/>
<path d="M30.2733 12.0791C28.4304 9.76812 25.8404 8.427 23.3945 8.427C20.1654 8.427 18.7995 9.97289 16.5561 9.97289C14.2429 9.97289 12.4855 8.4315 9.69298 8.4315C6.94998 8.4315 4.02922 10.1079 2.1773 12.9747C-0.426182 17.0115 0.0193574 24.6015 4.23849 31.0663C5.74837 33.3795 7.76455 35.9807 10.4018 36.0032C12.7488 36.0257 13.4103 34.4978 16.5898 34.4821C19.7694 34.4641 20.3724 36.0235 22.7149 35.9987C25.3544 35.9785 27.4808 33.096 28.9907 30.7828C30.0731 29.1244 30.4758 28.2895 31.3152 26.4174C25.2104 24.0929 24.2315 15.4116 30.2733 12.0791Z" fill="white"/>
</svg>
